<svg xmlns="http://www.w3.org/2000/svg" width="10" height="14" viewBox="0 0 10 14">
    <path fill="#A0A0A0" fill-rule="evenodd" d="M5.717 8.298l2.365 1.776v2.27h-.636V10.52L5.231 8.899a.726.726 0 0 0-.867 0l-2.216 1.62v1.825h-.624l.024-2.305 2.34-1.725a.984.984 0 0 0 .39-.79v-.867a.98.98 0 0 0-.415-.808L1.521 4.202V1.656h6.557l-.022 2.58L5.74 5.835a.974.974 0 0 0-.415.807v.865c0 .315.145.61.39.792zm2.81-3.306a.977.977 0 0 0 .414-.807v-2.53h.726V0H0v1.656h.662v2.546c0 .325.156.627.416.807L3.42 6.657l-.027.917L1.054 9.3a.984.984 0 0 0-.392.79v2.254H0V14h9.667v-1.656H8.94v-2.27a.98.98 0 0 0-.391-.791L6.185 7.506l.027-.917 2.315-1.597z"/>
</svg>
