<svg xmlns="http://www.w3.org/2000/svg" width="16" height="16" viewBox="0 0 16 16">
    <path fill="#A0A0A0" fill-rule="nonzero" d="M14 3.108h-3.336l1.427-1.415a.985.985 0 0 0 0-1.402 1.006 1.006 0 0 0-1.414 0L8 2.945 5.323.29a1.006 1.006 0 0 0-1.414 0 .985.985 0 0 0 0 1.402l1.427 1.415H2c-1.104 0-2 .888-2 1.983v8.926C0 15.112.896 16 2 16h12c1.104 0 2-.888 2-1.983V5.09a1.992 1.992 0 0 0-2-1.983zM7.385 7.497a1.5 1.5 0 1 0 2.532.51c.511.322 1.01.78 1.49 1.37.029.028.029.075 0 .113-.057.075-1.457 1.948-3.454 1.939-1.174 0-2.31-.65-3.36-1.94-.029-.028-.029-.075 0-.112.05-.075 1.154-1.544 2.792-1.88zM14 14.017H2V5.09h12v8.926z"/>
</svg>
